<?xml version="1.0" standalone="no"?>
<!DOCTYPE svg PUBLIC "-//W3C//DTD SVG 20010904//EN"
 "http://www.w3.org/TR/2001/REC-SVG-20010904/DTD/svg10.dtd">
<svg version="1.0" xmlns="http://www.w3.org/2000/svg"
 width="512.000000pt" height="512.000000pt" viewBox="0 0 512.000000 512.000000"
 preserveAspectRatio="xMidYMid meet">

<g transform="translate(0.000000,512.000000) scale(0.100000,-0.100000)"
fill="#000000" stroke="none">
<path d="M1105 5110 c-285 -29 -642 -115 -698 -168 -70 -66 -78 -199 -13 -230
11 -6 75 -32 141 -57 344 -134 653 -344 974 -662 197 -196 238 -223 350 -231
110 -7 230 27 340 98 34 22 64 40 66 40 10 0 67 -126 96 -212 30 -89 53 -278
34 -278 -4 0 -89 39 -189 86 -339 162 -490 204 -726 205 -314 0 -628 -120
-798 -305 -211 -232 -323 -574 -323 -990 0 -229 17 -373 71 -601 202 -844 794
-1581 1415 -1760 202 -58 374 -56 565 6 125 41 185 41 310 0 135 -44 253 -58
377 -43 635 74 1263 724 1547 1597 87 270 127 518 127 799 0 417 -112 760
-322 991 -171 186 -484 306 -801 306 -241 0 -431 -57 -779 -232 -54 -27 -103
-49 -108 -49 -14 0 17 141 55 253 96 275 287 537 555 759 111 91 139 132 139
198 0 60 -42 125 -102 156 -36 19 -112 18 -153 -2 -55 -26 -213 -163 -330
-286 -114 -119 -184 -210 -279 -361 l-55 -88 -17 33 c-9 18 -32 55 -51 81
l-35 48 12 65 c35 187 -34 389 -186 539 -107 106 -224 167 -441 230 -208 61
-534 88 -768 65z m626 -1735 c64 -34 87 -120 49 -182 -26 -43 -61 -59 -145
-67 -175 -17 -291 -71 -410 -191 -119 -118 -169 -224 -186 -394 -11 -103 -28
-140 -79 -166 -63 -32 -140 -7 -175 58 -15 29 -17 48 -12 123 33 455 415 825
860 833 44 1 79 -4 98 -14z"/>
</g>
</svg>
